<svg width="385" height="152" viewBox="0 0 385 152" fill="none" xmlns="http://www.w3.org/2000/svg">
<circle cx="149" cy="70" r="50" fill="#020202"/>
<path d="M135.768 51.52H133.368C132.664 49.664 131.928 47.488 131.16 44.992C130.456 42.496 129.848 40.128 129.336 37.888C131.576 35.968 134.264 34.464 137.4 33.376C140.536 32.224 143.928 31.648 147.576 31.648C150.776 31.648 153.528 32.096 155.832 32.992C158.136 33.888 160.024 35.104 161.496 36.64C163.032 38.176 164.152 39.968 164.856 42.016C165.56 44 165.912 46.08 165.912 48.256C165.912 51.84 165.08 55.52 163.416 59.296C161.752 63.072 159.672 66.752 157.176 70.336C154.744 73.856 152.088 77.184 149.208 80.32C146.328 83.456 143.672 86.208 141.24 88.576L137.208 92.32V92.704L142.584 92.128H159.096L163.8 81.376H166.2C166.328 82.784 166.456 84.32 166.584 85.984C166.712 87.648 166.808 89.344 166.872 91.072C167 92.736 167.096 94.368 167.16 95.968C167.224 97.504 167.256 98.848 167.256 100H127.608V96.928C129.016 95.456 130.712 93.664 132.696 91.552C134.744 89.44 136.856 87.104 139.032 84.544C141.208 81.984 143.352 79.264 145.464 76.384C147.64 73.504 149.56 70.592 151.224 67.648C152.888 64.64 154.232 61.664 155.256 58.72C156.344 55.776 156.888 52.96 156.888 50.272C156.888 48.416 156.632 46.656 156.12 44.992C155.672 43.328 154.968 41.888 154.008 40.672C153.048 39.392 151.864 38.4 150.456 37.696C149.112 36.992 147.544 36.64 145.752 36.64C144.408 36.64 143.224 36.736 142.2 36.928C141.176 37.12 140.056 37.408 138.84 37.792L135.768 51.52Z" fill="white"/>
<path d="M1.44 54.304C3.872 52.768 6.432 51.68 9.12 51.04V42.88C9.952 42.176 10.912 41.568 12 41.056C13.152 40.48 14.272 39.936 15.36 39.424H17.76V52H32.16V56.8H17.76V84.64C17.76 88.48 18.368 91.2 19.584 92.8C20.8 94.4 22.624 95.2 25.056 95.2C26.208 95.2 27.648 95.136 29.376 95.008C31.104 94.816 32.576 94.496 33.792 94.048L34.464 95.488C33.952 96.064 33.216 96.672 32.256 97.312C31.36 97.952 30.304 98.56 29.088 99.136C27.936 99.712 26.656 100.192 25.248 100.576C23.84 100.96 22.4 101.152 20.928 101.152C17.088 101.152 14.144 100.064 12.096 97.888C10.112 95.712 9.12 92.192 9.12 87.328V56.8H1.44V54.304ZM39.561 76C39.561 71.968 40.073 68.416 41.097 65.344C42.185 62.208 43.721 59.584 45.705 57.472C47.689 55.296 50.057 53.664 52.809 52.576C55.625 51.424 58.729 50.848 62.121 50.848C66.089 50.848 69.513 51.456 72.393 52.672C75.273 53.888 77.609 55.616 79.401 57.856C81.257 60.032 82.601 62.656 83.433 65.728C84.329 68.8 84.777 72.224 84.777 76C84.777 84.064 82.729 90.272 78.633 94.624C74.537 98.976 69.033 101.152 62.121 101.152C58.281 101.152 54.953 100.576 52.137 99.424C49.321 98.208 46.985 96.512 45.129 94.336C43.273 92.096 41.865 89.44 40.905 86.368C40.009 83.232 39.561 79.776 39.561 76ZM48.777 76C48.777 78.88 49.033 81.6 49.545 84.16C50.121 86.72 50.985 88.96 52.137 90.88C53.353 92.736 54.921 94.208 56.841 95.296C58.761 96.384 61.065 96.928 63.753 96.928C67.209 96.928 70.025 95.232 72.201 91.84C74.441 88.448 75.561 83.168 75.561 76C75.561 73.056 75.273 70.336 74.697 67.84C74.185 65.28 73.353 63.072 72.201 61.216C71.049 59.296 69.577 57.792 67.785 56.704C65.993 55.616 63.849 55.072 61.353 55.072C57.577 55.072 54.537 56.768 52.233 60.16C49.929 63.552 48.777 68.832 48.777 76ZM228.83 59.2C228.126 59.584 227.23 60.384 226.142 61.6C225.118 62.752 224.19 64.48 223.358 66.784V95.296C224.638 95.424 225.918 95.68 227.198 96.064C228.478 96.384 229.758 96.896 231.038 97.6V100H208.382V97.6C209.534 96.96 210.622 96.48 211.646 96.16C212.67 95.84 213.694 95.552 214.718 95.296V57.568L208.382 56.8V54.304C210.43 53.408 212.542 52.704 214.718 52.192C216.894 51.616 218.974 51.168 220.958 50.848H223.358V61.024H223.742C224.318 59.744 225.118 58.464 226.142 57.184C227.23 55.904 228.446 54.752 229.79 53.728C231.198 52.704 232.702 51.936 234.302 51.424C235.966 50.848 237.662 50.656 239.39 50.848C239.838 51.68 240.222 52.608 240.542 53.632C240.926 54.592 241.278 55.616 241.598 56.704V59.2H228.83ZM285.066 93.28C284.554 94.368 283.754 95.392 282.666 96.352C281.578 97.312 280.33 98.144 278.922 98.848C277.514 99.552 275.978 100.096 274.314 100.48C272.65 100.928 270.954 101.152 269.226 101.152C265.45 101.152 262.122 100.576 259.242 99.424C256.362 98.208 253.962 96.512 252.042 94.336C250.122 92.096 248.65 89.44 247.626 86.368C246.666 83.296 246.186 79.84 246.186 76C246.186 67.808 248.074 61.568 251.85 57.28C255.626 52.992 260.97 50.848 267.882 50.848C270.122 50.848 272.33 51.168 274.506 51.808C276.682 52.384 278.602 53.376 280.266 54.784C281.994 56.192 283.37 58.08 284.394 60.448C285.482 62.752 286.026 65.632 286.026 69.088C286.026 70.176 285.962 71.296 285.834 72.448C285.77 73.536 285.61 74.72 285.354 76H255.402C255.402 78.688 255.722 81.216 256.362 83.584C257.066 85.888 258.09 87.904 259.434 89.632C260.778 91.36 262.474 92.736 264.522 93.76C266.57 94.72 268.97 95.2 271.722 95.2C273.962 95.2 276.234 94.88 278.538 94.24C280.842 93.6 282.57 92.768 283.722 91.744L285.066 93.28ZM267.498 55.072C263.85 55.072 261.066 56.32 259.146 58.816C257.226 61.248 256.074 65.568 255.69 71.776H276.81C276.874 71.2 276.906 70.656 276.906 70.144C276.97 69.568 277.002 69.024 277.002 68.512C277.002 64.416 276.234 61.152 274.698 58.72C273.162 56.288 270.762 55.072 267.498 55.072ZM345.923 100H325.283V97.6C327.011 96.704 328.899 95.936 330.947 95.296V72.544C330.947 67.68 330.243 63.84 328.835 61.024C327.427 58.208 324.867 56.8 321.155 56.8C319.555 56.8 318.051 57.088 316.643 57.664C315.299 58.24 314.083 59.04 312.995 60.064C311.971 61.024 311.075 62.144 310.307 63.424C309.539 64.64 308.931 65.92 308.483 67.264V95.296C310.467 95.68 312.387 96.448 314.243 97.6V100H293.507V97.6C295.107 96.768 297.219 96 299.843 95.296V57.568L293.507 56.8V54.304C295.171 53.6 297.091 52.96 299.267 52.384C301.443 51.808 303.715 51.296 306.083 50.848H308.483V61.6H308.579C309.923 58.656 311.843 56.128 314.339 54.016C316.899 51.904 319.971 50.848 323.555 50.848C326.115 50.848 328.387 51.168 330.371 51.808C332.419 52.384 334.115 53.44 335.459 54.976C336.803 56.512 337.827 58.592 338.531 61.216C339.235 63.776 339.587 67.04 339.587 71.008V95.296C342.147 95.744 344.259 96.512 345.923 97.6V100ZM348.971 54.304C351.403 52.768 353.963 51.68 356.651 51.04V42.88C357.483 42.176 358.443 41.568 359.531 41.056C360.683 40.48 361.803 39.936 362.891 39.424H365.291V52H379.691V56.8H365.291V84.64C365.291 88.48 365.899 91.2 367.115 92.8C368.331 94.4 370.155 95.2 372.587 95.2C373.739 95.2 375.179 95.136 376.907 95.008C378.635 94.816 380.107 94.496 381.323 94.048L381.995 95.488C381.483 96.064 380.747 96.672 379.787 97.312C378.891 97.952 377.835 98.56 376.619 99.136C375.467 99.712 374.187 100.192 372.779 100.576C371.371 100.96 369.931 101.152 368.459 101.152C364.619 101.152 361.675 100.064 359.627 97.888C357.643 95.712 356.651 92.192 356.651 87.328V56.8H348.971V54.304Z" fill="#888888"/>
<path d="M150.68 145H145.496V144.4C145.88 144.192 146.36 144 146.936 143.824V138.208C146.936 136.96 146.76 135.984 146.408 135.28C146.056 134.56 145.416 134.2 144.488 134.2C144.072 134.2 143.696 134.28 143.36 134.44C143.024 134.584 142.72 134.776 142.448 135.016C142.176 135.256 141.944 135.536 141.752 135.856C141.56 136.16 141.416 136.48 141.32 136.816V143.824C141.576 143.888 141.816 143.96 142.04 144.04C142.28 144.12 142.512 144.24 142.736 144.4V145H137.576V144.4C138.072 144.144 138.6 143.952 139.16 143.824V128.632L137.336 128.44V127.816C137.8 127.624 138.336 127.456 138.944 127.312C139.568 127.168 140.16 127.048 140.72 126.952H141.32V135.424H141.344C141.68 134.672 142.16 134.032 142.784 133.504C143.424 132.976 144.192 132.712 145.088 132.712C145.728 132.712 146.296 132.792 146.792 132.952C147.304 133.096 147.728 133.36 148.064 133.744C148.4 134.128 148.656 134.648 148.832 135.304C149.008 135.944 149.096 136.76 149.096 137.752V143.824C149.368 143.888 149.64 143.96 149.912 144.04C150.184 144.12 150.44 144.24 150.68 144.4V145ZM152.07 139C152.07 137.992 152.198 137.104 152.454 136.336C152.726 135.552 153.11 134.896 153.606 134.368C154.102 133.824 154.694 133.416 155.382 133.144C156.086 132.856 156.862 132.712 157.71 132.712C158.702 132.712 159.558 132.864 160.278 133.168C160.998 133.472 161.582 133.904 162.03 134.464C162.494 135.008 162.83 135.664 163.038 136.432C163.262 137.2 163.374 138.056 163.374 139C163.374 141.016 162.862 142.568 161.838 143.656C160.814 144.744 159.438 145.288 157.71 145.288C156.75 145.288 155.918 145.144 155.214 144.856C154.51 144.552 153.926 144.128 153.462 143.584C152.998 143.024 152.646 142.36 152.406 141.592C152.182 140.808 152.07 139.944 152.07 139ZM154.374 139C154.374 139.72 154.438 140.4 154.566 141.04C154.71 141.68 154.926 142.24 155.214 142.72C155.518 143.184 155.91 143.552 156.39 143.824C156.87 144.096 157.446 144.232 158.118 144.232C158.982 144.232 159.686 143.808 160.23 142.96C160.79 142.112 161.07 140.792 161.07 139C161.07 138.264 160.998 137.584 160.854 136.96C160.726 136.32 160.518 135.768 160.23 135.304C159.942 134.824 159.574 134.448 159.126 134.176C158.678 133.904 158.142 133.768 157.518 133.768C156.574 133.768 155.814 134.192 155.238 135.04C154.662 135.888 154.374 137.208 154.374 139ZM166.2 140.248C166.2 139.24 166.224 138.256 166.272 137.296C166.32 136.32 166.344 135.352 166.344 134.392L164.76 134.2V133.576C165.272 133.384 165.792 133.216 166.32 133.072C166.864 132.928 167.392 132.808 167.904 132.712H168.504C168.504 133.912 168.48 135.104 168.432 136.288C168.384 137.472 168.36 138.648 168.36 139.816C168.36 140.44 168.392 141 168.456 141.496C168.536 141.992 168.664 142.408 168.84 142.744C169.032 143.08 169.288 143.344 169.608 143.536C169.928 143.712 170.336 143.8 170.832 143.8C171.552 143.8 172.152 143.544 172.632 143.032C173.128 142.504 173.512 141.824 173.784 140.992V134.392L172.224 134.2V133.576C172.72 133.384 173.232 133.216 173.76 133.072C174.304 132.928 174.832 132.808 175.344 132.712H175.944V143.632L177.528 143.824V144.328C177.064 144.536 176.592 144.72 176.112 144.88C175.648 145.04 175.16 145.16 174.648 145.24H174.048L173.88 142.384H173.784C173.704 142.72 173.56 143.064 173.352 143.416C173.16 143.752 172.904 144.064 172.584 144.352C172.264 144.624 171.896 144.848 171.48 145.024C171.08 145.2 170.64 145.288 170.16 145.288C169.52 145.288 168.952 145.208 168.456 145.048C167.976 144.904 167.568 144.64 167.232 144.256C166.896 143.872 166.64 143.36 166.464 142.72C166.288 142.064 166.2 141.24 166.2 140.248ZM185.213 142.264C185.213 141.816 185.069 141.44 184.781 141.136C184.509 140.816 184.157 140.52 183.725 140.248C183.293 139.976 182.829 139.712 182.333 139.456C181.853 139.2 181.397 138.904 180.965 138.568C180.533 138.216 180.173 137.816 179.885 137.368C179.613 136.92 179.477 136.368 179.477 135.712C179.477 135.28 179.573 134.88 179.765 134.512C179.973 134.144 180.245 133.832 180.581 133.576C180.917 133.304 181.309 133.096 181.757 132.952C182.205 132.792 182.685 132.712 183.197 132.712C184.061 132.712 184.765 132.76 185.309 132.856C185.869 132.952 186.405 133.088 186.917 133.264C186.853 133.776 186.773 134.296 186.677 134.824C186.597 135.336 186.477 135.864 186.317 136.408H185.717L184.805 133.96C184.613 133.88 184.397 133.832 184.157 133.816C183.917 133.784 183.669 133.768 183.413 133.768C183.125 133.768 182.869 133.824 182.645 133.936C182.437 134.032 182.253 134.16 182.093 134.32C181.949 134.48 181.837 134.664 181.757 134.872C181.677 135.08 181.637 135.288 181.637 135.496C181.637 135.928 181.773 136.304 182.045 136.624C182.333 136.928 182.693 137.216 183.125 137.488C183.557 137.744 184.013 138 184.493 138.256C184.989 138.512 185.453 138.8 185.885 139.12C186.317 139.44 186.669 139.816 186.941 140.248C187.229 140.664 187.373 141.168 187.373 141.76C187.373 142.304 187.253 142.792 187.013 143.224C186.789 143.656 186.469 144.024 186.053 144.328C185.653 144.632 185.181 144.864 184.637 145.024C184.109 145.2 183.541 145.288 182.933 145.288C182.245 145.288 181.613 145.224 181.037 145.096C180.461 144.984 179.861 144.816 179.237 144.592C179.269 144.016 179.341 143.464 179.453 142.936C179.565 142.392 179.709 141.872 179.885 141.376H180.485L181.541 143.992C181.717 144.12 181.925 144.192 182.165 144.208C182.421 144.224 182.653 144.232 182.861 144.232C183.565 144.232 184.133 144.04 184.565 143.656C184.997 143.272 185.213 142.808 185.213 142.264ZM199.22 143.32C199.092 143.592 198.892 143.848 198.62 144.088C198.348 144.328 198.036 144.536 197.684 144.712C197.332 144.888 196.948 145.024 196.532 145.12C196.116 145.232 195.692 145.288 195.26 145.288C194.316 145.288 193.484 145.144 192.764 144.856C192.044 144.552 191.444 144.128 190.964 143.584C190.484 143.024 190.116 142.36 189.86 141.592C189.62 140.824 189.5 139.96 189.5 139C189.5 136.952 189.972 135.392 190.916 134.32C191.86 133.248 193.196 132.712 194.924 132.712C195.484 132.712 196.036 132.792 196.58 132.952C197.124 133.096 197.604 133.344 198.02 133.696C198.452 134.048 198.796 134.52 199.052 135.112C199.324 135.688 199.46 136.408 199.46 137.272C199.46 137.544 199.444 137.824 199.412 138.112C199.396 138.384 199.356 138.68 199.292 139H191.804C191.804 139.672 191.884 140.304 192.044 140.896C192.22 141.472 192.476 141.976 192.812 142.408C193.148 142.84 193.572 143.184 194.084 143.44C194.596 143.68 195.196 143.8 195.884 143.8C196.444 143.8 197.012 143.72 197.588 143.56C198.164 143.4 198.596 143.192 198.884 142.936L199.22 143.32ZM194.828 133.768C193.916 133.768 193.22 134.08 192.74 134.704C192.26 135.312 191.972 136.392 191.876 137.944H197.156C197.172 137.8 197.18 137.664 197.18 137.536C197.196 137.392 197.204 137.256 197.204 137.128C197.204 136.104 197.012 135.288 196.628 134.68C196.244 134.072 195.644 133.768 194.828 133.768ZM207.666 142.264C207.666 141.816 207.522 141.44 207.234 141.136C206.962 140.816 206.61 140.52 206.178 140.248C205.746 139.976 205.282 139.712 204.786 139.456C204.306 139.2 203.85 138.904 203.418 138.568C202.986 138.216 202.626 137.816 202.338 137.368C202.066 136.92 201.93 136.368 201.93 135.712C201.93 135.28 202.026 134.88 202.218 134.512C202.426 134.144 202.698 133.832 203.034 133.576C203.37 133.304 203.762 133.096 204.21 132.952C204.658 132.792 205.138 132.712 205.65 132.712C206.514 132.712 207.218 132.76 207.762 132.856C208.322 132.952 208.858 133.088 209.37 133.264C209.306 133.776 209.226 134.296 209.13 134.824C209.05 135.336 208.93 135.864 208.77 136.408H208.17L207.258 133.96C207.066 133.88 206.85 133.832 206.61 133.816C206.37 133.784 206.122 133.768 205.866 133.768C205.578 133.768 205.322 133.824 205.098 133.936C204.89 134.032 204.706 134.16 204.546 134.32C204.402 134.48 204.29 134.664 204.21 134.872C204.13 135.08 204.09 135.288 204.09 135.496C204.09 135.928 204.226 136.304 204.498 136.624C204.786 136.928 205.146 137.216 205.578 137.488C206.01 137.744 206.466 138 206.946 138.256C207.442 138.512 207.906 138.8 208.338 139.12C208.77 139.44 209.122 139.816 209.394 140.248C209.682 140.664 209.826 141.168 209.826 141.76C209.826 142.304 209.706 142.792 209.466 143.224C209.242 143.656 208.922 144.024 208.506 144.328C208.106 144.632 207.634 144.864 207.09 145.024C206.562 145.2 205.994 145.288 205.386 145.288C204.698 145.288 204.066 145.224 203.49 145.096C202.914 144.984 202.314 144.816 201.69 144.592C201.722 144.016 201.794 143.464 201.906 142.936C202.018 142.392 202.162 141.872 202.338 141.376H202.938L203.994 143.992C204.17 144.12 204.378 144.192 204.618 144.208C204.874 144.224 205.106 144.232 205.314 144.232C206.018 144.232 206.586 144.04 207.018 143.656C207.45 143.272 207.666 142.808 207.666 142.264ZM226.645 141.856C226.645 142.208 226.653 142.512 226.669 142.768C226.685 143.024 226.701 143.296 226.717 143.584L228.373 143.824V144.328C227.973 144.536 227.525 144.72 227.029 144.88C226.549 145.04 226.085 145.16 225.637 145.24H225.037C224.877 144.872 224.781 144.472 224.749 144.04C224.717 143.592 224.693 143.104 224.677 142.576H224.557C224.493 142.896 224.365 143.224 224.173 143.56C223.997 143.88 223.757 144.168 223.453 144.424C223.165 144.68 222.821 144.888 222.421 145.048C222.021 145.208 221.565 145.288 221.053 145.288C220.077 145.288 219.277 144.992 218.653 144.4C218.045 143.808 217.741 143.032 217.741 142.072C217.741 141.336 217.885 140.736 218.173 140.272C218.477 139.792 218.917 139.416 219.493 139.144C220.069 138.872 220.781 138.68 221.629 138.568C222.477 138.44 223.461 138.344 224.581 138.28C224.645 137.592 224.661 136.976 224.629 136.432C224.613 135.872 224.525 135.4 224.365 135.016C224.221 134.616 223.997 134.312 223.693 134.104C223.405 133.88 223.021 133.768 222.541 133.768C222.317 133.768 222.061 133.784 221.773 133.816C221.501 133.832 221.229 133.896 220.957 134.008L219.829 136.888H219.205C219.045 136.408 218.901 135.912 218.773 135.4C218.661 134.888 218.589 134.384 218.557 133.888C219.165 133.52 219.837 133.232 220.573 133.024C221.325 132.816 222.157 132.712 223.069 132.712C223.885 132.712 224.533 132.832 225.013 133.072C225.509 133.296 225.885 133.592 226.141 133.96C226.397 134.328 226.565 134.736 226.645 135.184C226.725 135.632 226.765 136.08 226.765 136.528C226.765 137.488 226.741 138.416 226.693 139.312C226.661 140.192 226.645 141.04 226.645 141.856ZM222.013 143.8C222.413 143.8 222.765 143.72 223.069 143.56C223.373 143.4 223.629 143.208 223.837 142.984C224.045 142.76 224.213 142.536 224.341 142.312C224.469 142.072 224.557 141.872 224.605 141.712V139.192C223.677 139.192 222.917 139.24 222.325 139.336C221.733 139.432 221.269 139.584 220.933 139.792C220.597 140 220.365 140.264 220.237 140.584C220.109 140.888 220.045 141.24 220.045 141.64C220.045 142.328 220.221 142.864 220.573 143.248C220.925 143.616 221.405 143.8 222.013 143.8ZM242.77 145H237.61V144.4C238.042 144.176 238.514 143.984 239.026 143.824V138.136C239.026 136.92 238.85 135.96 238.498 135.256C238.146 134.552 237.506 134.2 236.578 134.2C236.178 134.2 235.802 134.272 235.45 134.416C235.114 134.56 234.81 134.76 234.538 135.016C234.282 135.256 234.058 135.536 233.866 135.856C233.674 136.16 233.522 136.48 233.41 136.816V143.824C233.906 143.92 234.386 144.112 234.85 144.4V145H229.666V144.4C230.066 144.192 230.594 144 231.25 143.824V134.392L229.666 134.2V133.576C230.082 133.4 230.562 133.24 231.106 133.096C231.65 132.952 232.218 132.824 232.81 132.712H233.41V135.4H233.434C233.77 134.664 234.25 134.032 234.874 133.504C235.514 132.976 236.282 132.712 237.178 132.712C237.818 132.712 238.386 132.792 238.882 132.952C239.394 133.096 239.818 133.36 240.154 133.744C240.49 134.128 240.746 134.648 240.922 135.304C241.098 135.944 241.186 136.76 241.186 137.752V143.824C241.826 143.936 242.354 144.128 242.77 144.4V145ZM252.124 142.624C252.044 142.976 251.908 143.312 251.716 143.632C251.524 143.952 251.284 144.24 250.996 144.496C250.724 144.736 250.404 144.928 250.036 145.072C249.684 145.216 249.3 145.288 248.884 145.288C247.3 145.288 246.116 144.784 245.332 143.776C244.548 142.768 244.156 141.2 244.156 139.072C244.156 137.024 244.652 135.464 245.644 134.392C246.652 133.32 248.004 132.784 249.7 132.784C250.292 132.784 250.756 132.816 251.092 132.88C251.428 132.928 251.796 133.024 252.196 133.168V128.632L250.372 128.44V127.816C250.836 127.624 251.372 127.456 251.98 127.312C252.604 127.168 253.196 127.048 253.756 126.952H254.356V143.632L255.94 143.824V144.328C255.476 144.552 254.996 144.744 254.5 144.904C254.004 145.064 253.516 145.176 253.036 145.24H252.436L252.22 142.624H252.124ZM249.364 143.8C250.148 143.8 250.772 143.552 251.236 143.056C251.7 142.56 252.02 141.888 252.196 141.04V134.272C251.924 134.112 251.604 134 251.236 133.936C250.868 133.872 250.396 133.84 249.82 133.84C248.732 133.84 247.9 134.32 247.324 135.28C246.748 136.224 246.46 137.488 246.46 139.072C246.46 139.728 246.516 140.344 246.628 140.92C246.74 141.48 246.916 141.976 247.156 142.408C247.396 142.84 247.692 143.184 248.044 143.44C248.412 143.68 248.852 143.8 249.364 143.8ZM272.16 141.856C272.16 142.208 272.168 142.512 272.184 142.768C272.2 143.024 272.216 143.296 272.232 143.584L273.888 143.824V144.328C273.488 144.536 273.04 144.72 272.544 144.88C272.064 145.04 271.6 145.16 271.152 145.24H270.552C270.392 144.872 270.296 144.472 270.264 144.04C270.232 143.592 270.208 143.104 270.192 142.576H270.072C270.008 142.896 269.88 143.224 269.688 143.56C269.512 143.88 269.272 144.168 268.968 144.424C268.68 144.68 268.336 144.888 267.936 145.048C267.536 145.208 267.08 145.288 266.568 145.288C265.592 145.288 264.792 144.992 264.168 144.4C263.56 143.808 263.256 143.032 263.256 142.072C263.256 141.336 263.4 140.736 263.688 140.272C263.992 139.792 264.432 139.416 265.008 139.144C265.584 138.872 266.296 138.68 267.144 138.568C267.992 138.44 268.976 138.344 270.096 138.28C270.16 137.592 270.176 136.976 270.144 136.432C270.128 135.872 270.04 135.4 269.88 135.016C269.736 134.616 269.512 134.312 269.208 134.104C268.92 133.88 268.536 133.768 268.056 133.768C267.832 133.768 267.576 133.784 267.288 133.816C267.016 133.832 266.744 133.896 266.472 134.008L265.344 136.888H264.72C264.56 136.408 264.416 135.912 264.288 135.4C264.176 134.888 264.104 134.384 264.072 133.888C264.68 133.52 265.352 133.232 266.088 133.024C266.84 132.816 267.672 132.712 268.584 132.712C269.4 132.712 270.048 132.832 270.528 133.072C271.024 133.296 271.4 133.592 271.656 133.96C271.912 134.328 272.08 134.736 272.16 135.184C272.24 135.632 272.28 136.08 272.28 136.528C272.28 137.488 272.256 138.416 272.208 139.312C272.176 140.192 272.16 141.04 272.16 141.856ZM267.528 143.8C267.928 143.8 268.28 143.72 268.584 143.56C268.888 143.4 269.144 143.208 269.352 142.984C269.56 142.76 269.728 142.536 269.856 142.312C269.984 142.072 270.072 141.872 270.12 141.712V139.192C269.192 139.192 268.432 139.24 267.84 139.336C267.248 139.432 266.784 139.584 266.448 139.792C266.112 140 265.88 140.264 265.752 140.584C265.624 140.888 265.56 141.24 265.56 141.64C265.56 142.328 265.736 142.864 266.088 143.248C266.44 143.616 266.92 143.8 267.528 143.8ZM280.51 149.8H275.182V149.2C275.726 148.944 276.254 148.752 276.766 148.624V134.392L275.182 134.2V133.576C275.694 133.352 276.214 133.176 276.742 133.048C277.286 132.904 277.814 132.792 278.326 132.712H278.926V135.4H278.95C279.27 134.584 279.718 133.936 280.294 133.456C280.87 132.96 281.622 132.712 282.55 132.712C283.974 132.712 285.078 133.184 285.862 134.128C286.646 135.072 287.038 136.608 287.038 138.736C287.038 139.744 286.902 140.656 286.63 141.472C286.374 142.288 285.998 142.976 285.502 143.536C285.022 144.096 284.43 144.528 283.726 144.832C283.038 145.136 282.27 145.288 281.422 145.288C280.83 145.288 280.366 145.248 280.03 145.168C279.694 145.104 279.326 144.984 278.926 144.808V148.624C279.182 148.656 279.438 148.712 279.694 148.792C279.95 148.888 280.222 149.024 280.51 149.2V149.8ZM281.782 134.2C280.998 134.2 280.374 134.448 279.91 134.944C279.446 135.44 279.118 136.12 278.926 136.984V143.704C279.214 143.88 279.534 144.016 279.886 144.112C280.254 144.192 280.726 144.232 281.302 144.232C281.83 144.232 282.302 144.096 282.718 143.824C283.15 143.552 283.51 143.168 283.798 142.672C284.102 142.176 284.334 141.6 284.494 140.944C284.654 140.272 284.734 139.536 284.734 138.736C284.734 138.08 284.678 137.48 284.566 136.936C284.47 136.376 284.302 135.896 284.062 135.496C283.838 135.08 283.534 134.76 283.15 134.536C282.782 134.312 282.326 134.2 281.782 134.2ZM297.871 141.856C297.871 142.208 297.879 142.512 297.895 142.768C297.911 143.024 297.927 143.296 297.943 143.584L299.599 143.824V144.328C299.199 144.536 298.751 144.72 298.255 144.88C297.775 145.04 297.311 145.16 296.863 145.24H296.263C296.103 144.872 296.007 144.472 295.975 144.04C295.943 143.592 295.919 143.104 295.903 142.576H295.783C295.719 142.896 295.591 143.224 295.399 143.56C295.223 143.88 294.983 144.168 294.679 144.424C294.391 144.68 294.047 144.888 293.647 145.048C293.247 145.208 292.791 145.288 292.279 145.288C291.303 145.288 290.503 144.992 289.879 144.4C289.271 143.808 288.967 143.032 288.967 142.072C288.967 141.336 289.111 140.736 289.399 140.272C289.703 139.792 290.143 139.416 290.719 139.144C291.295 138.872 292.007 138.68 292.855 138.568C293.703 138.44 294.687 138.344 295.807 138.28C295.871 137.592 295.887 136.976 295.855 136.432C295.839 135.872 295.751 135.4 295.591 135.016C295.447 134.616 295.223 134.312 294.919 134.104C294.631 133.88 294.247 133.768 293.767 133.768C293.543 133.768 293.287 133.784 292.999 133.816C292.727 133.832 292.455 133.896 292.183 134.008L291.055 136.888H290.431C290.271 136.408 290.127 135.912 289.999 135.4C289.887 134.888 289.815 134.384 289.783 133.888C290.391 133.52 291.063 133.232 291.799 133.024C292.551 132.816 293.383 132.712 294.295 132.712C295.111 132.712 295.759 132.832 296.239 133.072C296.735 133.296 297.111 133.592 297.367 133.96C297.623 134.328 297.791 134.736 297.871 135.184C297.951 135.632 297.991 136.08 297.991 136.528C297.991 137.488 297.967 138.416 297.919 139.312C297.887 140.192 297.871 141.04 297.871 141.856ZM293.239 143.8C293.639 143.8 293.991 143.72 294.295 143.56C294.599 143.4 294.855 143.208 295.063 142.984C295.271 142.76 295.439 142.536 295.567 142.312C295.695 142.072 295.783 141.872 295.831 141.712V139.192C294.903 139.192 294.143 139.24 293.551 139.336C292.959 139.432 292.495 139.584 292.159 139.792C291.823 140 291.591 140.264 291.463 140.584C291.335 140.888 291.271 141.24 291.271 141.64C291.271 142.328 291.447 142.864 291.799 143.248C292.151 143.616 292.631 143.8 293.239 143.8ZM306.004 134.8C305.828 134.896 305.604 135.096 305.332 135.4C305.076 135.688 304.844 136.12 304.636 136.696V143.824C304.956 143.856 305.276 143.92 305.596 144.016C305.916 144.096 306.236 144.224 306.556 144.4V145H300.892V144.4C301.18 144.24 301.452 144.12 301.708 144.04C301.964 143.96 302.22 143.888 302.476 143.824V134.392L300.892 134.2V133.576C301.404 133.352 301.932 133.176 302.476 133.048C303.02 132.904 303.54 132.792 304.036 132.712H304.636V135.256H304.732C304.876 134.936 305.076 134.616 305.332 134.296C305.604 133.976 305.908 133.688 306.244 133.432C306.596 133.176 306.972 132.984 307.372 132.856C307.788 132.712 308.212 132.664 308.644 132.712C308.756 132.92 308.852 133.152 308.932 133.408C309.028 133.648 309.116 133.904 309.196 134.176V134.8H306.004ZM309.719 133.576C310.327 133.192 310.967 132.92 311.639 132.76V130.72C311.847 130.544 312.087 130.392 312.359 130.264C312.647 130.12 312.927 129.984 313.199 129.856H313.799V133H317.399V134.2H313.799V141.16C313.799 142.12 313.951 142.8 314.255 143.2C314.559 143.6 315.015 143.8 315.623 143.8C315.911 143.8 316.271 143.784 316.703 143.752C317.135 143.704 317.503 143.624 317.807 143.512L317.975 143.872C317.847 144.016 317.663 144.168 317.423 144.328C317.199 144.488 316.935 144.64 316.631 144.784C316.343 144.928 316.023 145.048 315.671 145.144C315.319 145.24 314.959 145.288 314.591 145.288C313.631 145.288 312.895 145.016 312.383 144.472C311.887 143.928 311.639 143.048 311.639 141.832V134.2H309.719V133.576ZM331.418 145H326.282V144.4C326.442 144.304 326.634 144.208 326.858 144.112C327.098 144 327.378 143.904 327.698 143.824V138.28C327.698 137.64 327.666 137.064 327.602 136.552C327.554 136.04 327.45 135.616 327.29 135.28C327.146 134.928 326.93 134.664 326.642 134.488C326.354 134.296 325.978 134.2 325.514 134.2C325.162 134.2 324.834 134.272 324.53 134.416C324.242 134.56 323.978 134.752 323.738 134.992C323.514 135.232 323.314 135.504 323.138 135.808C322.978 136.112 322.85 136.432 322.754 136.768V143.824C323.01 143.904 323.25 143.992 323.474 144.088C323.714 144.168 323.946 144.272 324.17 144.4V145H319.01V144.4C319.234 144.288 319.482 144.184 319.754 144.088C320.026 143.992 320.306 143.904 320.594 143.824V134.392L319.01 134.2V133.576C319.522 133.352 320.042 133.176 320.57 133.048C321.114 132.904 321.642 132.792 322.154 132.712H322.754V135.424H322.778C323.034 134.672 323.466 134.032 324.074 133.504C324.698 132.976 325.466 132.712 326.378 132.712C326.762 132.712 327.13 132.752 327.482 132.832C327.834 132.912 328.162 133.064 328.466 133.288C328.77 133.496 329.026 133.792 329.234 134.176C329.442 134.56 329.594 135.056 329.69 135.664C329.978 134.784 330.442 134.072 331.082 133.528C331.722 132.984 332.522 132.712 333.482 132.712C334.074 132.712 334.586 132.792 335.018 132.952C335.466 133.096 335.834 133.36 336.122 133.744C336.41 134.128 336.618 134.648 336.746 135.304C336.89 135.96 336.962 136.792 336.962 137.8V143.824C337.506 143.92 338.034 144.112 338.546 144.4V145H333.386V144.4C333.866 144.144 334.338 143.952 334.802 143.824V137.848C334.802 137.272 334.77 136.76 334.706 136.312C334.658 135.864 334.554 135.488 334.394 135.184C334.234 134.864 334.01 134.624 333.722 134.464C333.434 134.288 333.05 134.2 332.57 134.2C331.802 134.2 331.202 134.464 330.77 134.992C330.354 135.52 330.05 136.192 329.858 137.008V143.824C330.418 143.984 330.938 144.176 331.418 144.4V145ZM349.688 143.32C349.56 143.592 349.36 143.848 349.088 144.088C348.816 144.328 348.504 144.536 348.152 144.712C347.8 144.888 347.416 145.024 347 145.12C346.584 145.232 346.16 145.288 345.728 145.288C344.784 145.288 343.952 145.144 343.232 144.856C342.512 144.552 341.912 144.128 341.432 143.584C340.952 143.024 340.584 142.36 340.328 141.592C340.088 140.824 339.968 139.96 339.968 139C339.968 136.952 340.44 135.392 341.384 134.32C342.328 133.248 343.664 132.712 345.392 132.712C345.952 132.712 346.504 132.792 347.048 132.952C347.592 133.096 348.072 133.344 348.488 133.696C348.92 134.048 349.264 134.52 349.52 135.112C349.792 135.688 349.928 136.408 349.928 137.272C349.928 137.544 349.912 137.824 349.88 138.112C349.864 138.384 349.824 138.68 349.76 139H342.272C342.272 139.672 342.352 140.304 342.512 140.896C342.688 141.472 342.944 141.976 343.28 142.408C343.616 142.84 344.04 143.184 344.552 143.44C345.064 143.68 345.664 143.8 346.352 143.8C346.912 143.8 347.48 143.72 348.056 143.56C348.632 143.4 349.064 143.192 349.352 142.936L349.688 143.32ZM345.296 133.768C344.384 133.768 343.688 134.08 343.208 134.704C342.728 135.312 342.44 136.392 342.344 137.944H347.624C347.64 137.8 347.648 137.664 347.648 137.536C347.664 137.392 347.672 137.256 347.672 137.128C347.672 136.104 347.48 135.288 347.096 134.68C346.712 134.072 346.112 133.768 345.296 133.768ZM364.903 145H359.743V144.4C360.175 144.176 360.647 143.984 361.159 143.824V138.136C361.159 136.92 360.983 135.96 360.631 135.256C360.279 134.552 359.639 134.2 358.711 134.2C358.311 134.2 357.935 134.272 357.583 134.416C357.247 134.56 356.943 134.76 356.671 135.016C356.415 135.256 356.191 135.536 355.999 135.856C355.807 136.16 355.655 136.48 355.543 136.816V143.824C356.039 143.92 356.519 144.112 356.983 144.4V145H351.799V144.4C352.199 144.192 352.727 144 353.383 143.824V134.392L351.799 134.2V133.576C352.215 133.4 352.695 133.24 353.239 133.096C353.783 132.952 354.351 132.824 354.943 132.712H355.543V135.4H355.567C355.903 134.664 356.383 134.032 357.007 133.504C357.647 132.976 358.415 132.712 359.311 132.712C359.951 132.712 360.519 132.792 361.015 132.952C361.527 133.096 361.951 133.36 362.287 133.744C362.623 134.128 362.879 134.648 363.055 135.304C363.231 135.944 363.319 136.76 363.319 137.752V143.824C363.959 143.936 364.487 144.128 364.903 144.4V145ZM365.665 133.576C366.273 133.192 366.913 132.92 367.585 132.76V130.72C367.793 130.544 368.033 130.392 368.305 130.264C368.593 130.12 368.873 129.984 369.145 129.856H369.745V133H373.345V134.2H369.745V141.16C369.745 142.12 369.897 142.8 370.201 143.2C370.505 143.6 370.961 143.8 371.569 143.8C371.857 143.8 372.217 143.784 372.649 143.752C373.081 143.704 373.449 143.624 373.753 143.512L373.921 143.872C373.793 144.016 373.609 144.168 373.369 144.328C373.145 144.488 372.881 144.64 372.577 144.784C372.289 144.928 371.969 145.048 371.617 145.144C371.265 145.24 370.905 145.288 370.537 145.288C369.577 145.288 368.841 145.016 368.329 144.472C367.833 143.928 367.585 143.048 367.585 141.832V134.2H365.665V133.576ZM381.291 142.264C381.291 141.816 381.147 141.44 380.859 141.136C380.587 140.816 380.235 140.52 379.803 140.248C379.371 139.976 378.907 139.712 378.411 139.456C377.931 139.2 377.475 138.904 377.043 138.568C376.611 138.216 376.251 137.816 375.963 137.368C375.691 136.92 375.555 136.368 375.555 135.712C375.555 135.28 375.651 134.88 375.843 134.512C376.051 134.144 376.323 133.832 376.659 133.576C376.995 133.304 377.387 133.096 377.835 132.952C378.283 132.792 378.763 132.712 379.275 132.712C380.139 132.712 380.843 132.76 381.387 132.856C381.947 132.952 382.483 133.088 382.995 133.264C382.931 133.776 382.851 134.296 382.755 134.824C382.675 135.336 382.555 135.864 382.395 136.408H381.795L380.883 133.96C380.691 133.88 380.475 133.832 380.235 133.816C379.995 133.784 379.747 133.768 379.491 133.768C379.203 133.768 378.947 133.824 378.723 133.936C378.515 134.032 378.331 134.16 378.171 134.32C378.027 134.48 377.915 134.664 377.835 134.872C377.755 135.08 377.715 135.288 377.715 135.496C377.715 135.928 377.851 136.304 378.123 136.624C378.411 136.928 378.771 137.216 379.203 137.488C379.635 137.744 380.091 138 380.571 138.256C381.067 138.512 381.531 138.8 381.963 139.12C382.395 139.44 382.747 139.816 383.019 140.248C383.307 140.664 383.451 141.168 383.451 141.76C383.451 142.304 383.331 142.792 383.091 143.224C382.867 143.656 382.547 144.024 382.131 144.328C381.731 144.632 381.259 144.864 380.715 145.024C380.187 145.2 379.619 145.288 379.011 145.288C378.323 145.288 377.691 145.224 377.115 145.096C376.539 144.984 375.939 144.816 375.315 144.592C375.347 144.016 375.419 143.464 375.531 142.936C375.643 142.392 375.787 141.872 375.963 141.376H376.563L377.619 143.992C377.795 144.12 378.003 144.192 378.243 144.208C378.499 144.224 378.731 144.232 378.939 144.232C379.643 144.232 380.211 144.04 380.643 143.656C381.075 143.272 381.291 142.808 381.291 142.264Z" fill="#888888"/>
</svg>
